{
    "accessors": {
        "accessor_16": {
            "bufferView": "bufferView_22",
            "byteOffset": 0,
            "byteStride": 0,
            "componentType": 5123,
            "count": 4356,
            "type": "SCALAR"
        },
        "accessor_18": {
            "bufferView": "bufferView_23",
            "byteOffset": 0,
            "byteStride": 12,
            "componentType": 5126,
            "count": 4356,
            "max": [
                3.01823,
                2.72543,
                2.44293
            ],
            "min": [
                -2.48423,
                -2.54038,
                -2.60244
            ],
            "type": "VEC3"
        },
        "accessor_20": {
            "bufferView": "bufferView_23",
            "byteOffset": 52272,
            "byteStride": 12,
            "componentType": 5126,
            "count": 4356,
            "max": [
                0.996334,
                0.998198,
                0.995717
            ],
            "min": [
                -0.998568,
                -0.998344,
                -0.998618
            ],
            "type": "VEC3"
        }
    },
    "animations": {},
    "asset": {
        "generator": "collada2gltf@173625dc5ff1b7e8046666be1f3ca2835512ac08",
        "premultipliedAlpha": true,
        "profile": "WebGL 1.0.2",
        "version": 0.8
    },
    "bufferViews": {
        "bufferView_22": {
            "buffer": "fractal",
            "byteLength": 8712,
            "byteOffset": 0,
            "target": 34963
        },
        "bufferView_23": {
            "buffer": "fractal",
            "byteLength": 104544,
            "byteOffset": 8712,
            "target": 34962
        }
    },
    "buffers": {
        "fractal": {
            "byteLength": 113256,
            "type": "arraybuffer",
            "uri": "fractal.bin"
        }
    },
    "materials": {
        "None_004-effect": {
            "instanceTechnique": {
                "technique": "technique0",
                "values": {
                    "ambient": [
                        0,
                        0,
                        0,
                        1
                    ],
                    "diffuse": [
                        0.64,
                        0.64,
                        0.64,
                        1
                    ],
                    "emission": [
                        0,
                        0,
                        0,
                        1
                    ],
                    "shininess": 50,
                    "specular": [
                        0.5,
                        0.5,
                        0.5,
                        1
                    ]
                }
            },
            "name": "None_004"
        }
    },
    "meshes": {
        "Cube_Cube_003-mesh": {
            "name": "Cube_Cube.003",
            "primitives": [
                {
                    "attributes": {
                        "NORMAL": "accessor_20",
                        "POSITION": "accessor_18"
                    },
                    "indices": "accessor_16",
                    "material": "None_004-effect",
                    "primitive": 4
                }
            ]
        }
    },
    "nodes": {
        "Cube_Cube_003": {
            "children": [],
            "matrix": [
                1,
                0,
                0,
                0,
                0,
                -4.37114e-08,
                1,
                0,
                0,
                -1,
                -4.37114e-08,
                0,
                0,
                0,
                0,
                1
            ],
            "meshes": [
                "Cube_Cube_003-mesh"
            ],
            "name": "Cube_Cube_003"
        },
        "node_1": {
            "children": [
                "Cube_Cube_003"
            ],
            "matrix": [
                1,
                0,
                0,
                0,
                0,
                0,
                -1,
                0,
                0,
                1,
                0,
                0,
                0,
                0,
                0,
                1
            ],
            "name": "Y_UP_Transform"
        }
    },
    "programs": {
        "program_0": {
            "attributes": [
                "a_normal",
                "a_position"
            ],
            "fragmentShader": "fractal0FS",
            "vertexShader": "fractal0VS"
        }
    },
    "scene": "defaultScene",
    "scenes": {
        "defaultScene": {
            "nodes": [
                "node_1"
            ]
        }
    },
    "shaders": {
        "fractal0FS": {
            "type": 35632,
            "uri": "fractal0FS.glsl"
        },
        "fractal0VS": {
            "type": 35633,
            "uri": "fractal0VS.glsl"
        }
    },
    "skins": {},
    "techniques": {
        "technique0": {
            "parameters": {
                "ambient": {
                    "type": 35666
                },
                "diffuse": {
                    "type": 35666
                },
                "emission": {
                    "type": 35666
                },
                "modelViewMatrix": {
                    "semantic": "MODELVIEW",
                    "type": 35676
                },
                "normal": {
                    "semantic": "NORMAL",
                    "type": 35665
                },
                "normalMatrix": {
                    "semantic": "MODELVIEWINVERSETRANSPOSE",
                    "type": 35675
                },
                "position": {
                    "semantic": "POSITION",
                    "type": 35665
                },
                "projectionMatrix": {
                    "semantic": "PROJECTION",
                    "type": 35676
                },
                "shininess": {
                    "type": 5126
                },
                "specular": {
                    "type": 35666
                }
            },
            "pass": "defaultPass",
            "passes": {
                "defaultPass": {
                    "details": {
                        "commonProfile": {
                            "extras": {
                                "doubleSided": false
                            },
                            "lightingModel": "Phong",
                            "parameters": [
                                "ambient",
                                "diffuse",
                                "emission",
                                "modelViewMatrix",
                                "normalMatrix",
                                "projectionMatrix",
                                "shininess",
                                "specular"
                            ]
                        },
                        "type": "COLLADA-1.4.1/commonProfile"
                    },
                    "instanceProgram": {
                        "attributes": {
                            "a_normal": "normal",
                            "a_position": "position"
                        },
                        "program": "program_0",
                        "uniforms": {
                            "u_ambient": "ambient",
                            "u_diffuse": "diffuse",
                            "u_emission": "emission",
                            "u_modelViewMatrix": "modelViewMatrix",
                            "u_normalMatrix": "normalMatrix",
                            "u_projectionMatrix": "projectionMatrix",
                            "u_shininess": "shininess",
                            "u_specular": "specular"
                        }
                    },
                    "states": {
                        "enable": [
                            2884,
                            2929
                        ]
                    }
                }
            }
        }
    }
}