{
    "accessors": {
        "accessor_22": {
            "bufferView": "bufferView_31",
            "byteOffset": 0,
            "byteStride": 0,
            "componentType": 5123,
            "count": 96,
            "type": "SCALAR"
        },
        "accessor_25": {
            "bufferView": "bufferView_31",
            "byteOffset": 192,
            "byteStride": 0,
            "componentType": 5123,
            "count": 9216,
            "type": "SCALAR"
        },
        "accessor_27": {
            "bufferView": "bufferView_32",
            "byteOffset": 0,
            "byteStride": 12,
            "componentType": 5126,
            "count": 9272,
            "max": [
                3.8225,
                1.56543,
                0.726445
            ],
            "min": [
                -3.8225,
                -1.72311,
                -0.725549
            ],
            "type": "VEC3"
        },
        "accessor_29": {
            "bufferView": "bufferView_32",
            "byteOffset": 111264,
            "byteStride": 12,
            "componentType": 5126,
            "count": 9272,
            "max": [
                0.997598,
                0.998126,
                0.998941
            ],
            "min": [
                -0.997598,
                -0.999943,
                -0.998941
            ],
            "type": "VEC3"
        }
    },
    "animations": {},
    "asset": {
        "generator": "collada2gltf@949ce5f662c109eb7d327ab8c65ac884cb71d3b2",
        "premultipliedAlpha": true,
        "profile": {
            "api": "WebGL",
            "version": "1.0.2"
        },
        "version": "1.0"
    },
    "bufferViews": {
        "bufferView_31": {
            "buffer": "meshF",
            "byteLength": 18624,
            "byteOffset": 0,
            "target": 34963
        },
        "bufferView_32": {
            "buffer": "meshF",
            "byteLength": 222528,
            "byteOffset": 18624,
            "target": 34962
        }
    },
    "buffers": {
        "meshF": {
            "byteLength": 241152,
            "type": "arraybuffer",
            "uri": "meshF.bin"
        }
    },
    "materials": {
        "__glTF__defaultMaterial0": {
            "name": "__glTF__defaultMaterial0",
            "technique": "technique0",
            "values": {
                "diffuse": [
                    1,
                    1,
                    1,
                    1
                ]
            }
        },
        "__glTF__defaultMaterial1": {
            "name": "__glTF__defaultMaterial1",
            "technique": "technique0",
            "values": {
                "diffuse": [
                    1,
                    1,
                    1,
                    1
                ]
            }
        }
    },
    "meshes": {
        "E-mesh": {
            "name": "E",
            "primitives": [
                {
                    "attributes": {
                        "POSITION": "accessor_27"
                    },
                    "indices": "accessor_22",
                    "material": "__glTF__defaultMaterial1",
                    "mode": 1
                },
                {
                    "attributes": {
                        "NORMAL": "accessor_29",
                        "POSITION": "accessor_27"
                    },
                    "indices": "accessor_25",
                    "material": "__glTF__defaultMaterial0",
                    "mode": 4
                }
            ]
        }
    },
    "nodes": {
        "Cube": {
            "children": [],
            "matrix": [
                1,
                0,
                0,
                0,
                0,
                7.54979e-08,
                1,
                0,
                0,
                -1,
                7.54979e-08,
                0,
                0,
                0,
                0,
                1
            ],
            "meshes": [
                "E-mesh"
            ],
            "name": "Cube"
        },
        "node_1": {
            "children": [
                "Cube"
            ],
            "matrix": [
                1,
                0,
                0,
                0,
                0,
                0,
                -1,
                0,
                0,
                1,
                0,
                0,
                0,
                0,
                0,
                1
            ],
            "name": "Y_UP_Transform"
        }
    },
    "programs": {
        "program_0": {
            "attributes": [
                "a_position"
            ],
            "fragmentShader": "meshF0FS",
            "vertexShader": "meshF0VS"
        }
    },
    "scene": "defaultScene",
    "scenes": {
        "defaultScene": {
            "nodes": [
                "node_1"
            ]
        }
    },
    "shaders": {
        "meshF0FS": {
            "type": 35632,
            "uri": "meshF0FS.glsl"
        },
        "meshF0VS": {
            "type": 35633,
            "uri": "meshF0VS.glsl"
        }
    },
    "skins": {},
    "techniques": {
        "technique0": {
            "attributes": {
                "a_position": "position"
            },
            "parameters": {
                "diffuse": {
                    "type": 35666
                },
                "modelViewMatrix": {
                    "semantic": "MODELVIEW",
                    "type": 35676
                },
                "position": {
                    "semantic": "POSITION",
                    "type": 35665
                },
                "projectionMatrix": {
                    "semantic": "PROJECTION",
                    "type": 35676
                }
            },
            "program": "program_0",
            "states": {
                "enable": [
                    2929,
                    2884
                ]
            },
            "uniforms": {
                "u_diffuse": "diffuse",
                "u_modelViewMatrix": "modelViewMatrix",
                "u_projectionMatrix": "projectionMatrix"
            }
        }
    }
}