{
    "accessors": {
        "accessor_100": {
            "bufferView": "bufferView_103",
            "byteOffset": 14241456,
            "byteStride": 12,
            "componentType": 5126,
            "count": 7212,
            "max": [
                -0.0233065,
                0.999723,
                0.155849
            ],
            "min": [
                -0.999943,
                -0.999723,
                0.00011936
            ],
            "type": "VEC3"
        },
        "accessor_24": {
            "bufferView": "bufferView_102",
            "byteOffset": 0,
            "byteStride": 0,
            "componentType": 5123,
            "count": 65532,
            "type": "SCALAR"
        },
        "accessor_26": {
            "bufferView": "bufferView_103",
            "byteOffset": 0,
            "byteStride": 12,
            "componentType": 5126,
            "count": 65532,
            "max": [
                -0.00294197,
                0.999877,
                0
            ],
            "min": [
                -1,
                -0.999877,
                -0.983469
            ],
            "type": "VEC3"
        },
        "accessor_28": {
            "bufferView": "bufferView_103",
            "byteOffset": 786384,
            "byteStride": 12,
            "componentType": 5126,
            "count": 65532,
            "max": [
                -0.00452769,
                0.999723,
                -0.000119618
            ],
            "min": [
                -0.99995,
                -0.999723,
                -0.982692
            ],
            "type": "VEC3"
        },
        "accessor_32": {
            "bufferView": "bufferView_102",
            "byteOffset": 131064,
            "byteStride": 0,
            "componentType": 5123,
            "count": 65532,
            "type": "SCALAR"
        },
        "accessor_34": {
            "bufferView": "bufferView_103",
            "byteOffset": 1572768,
            "byteStride": 12,
            "componentType": 5126,
            "count": 65532,
            "max": [
                0.934325,
                0.999877,
                -0.00578195
            ],
            "min": [
                -0.18738,
                -0.999877,
                -0.999997
            ],
            "type": "VEC3"
        },
        "accessor_36": {
            "bufferView": "bufferView_103",
            "byteOffset": 2359152,
            "byteStride": 12,
            "componentType": 5126,
            "count": 65532,
            "max": [
                0.932022,
                0.999723,
                -0.00855118
            ],
            "min": [
                -0.181194,
                -0.999723,
                -0.99995
            ],
            "type": "VEC3"
        },
        "accessor_40": {
            "bufferView": "bufferView_102",
            "byteOffset": 262128,
            "byteStride": 0,
            "componentType": 5123,
            "count": 65532,
            "type": "SCALAR"
        },
        "accessor_42": {
            "bufferView": "bufferView_103",
            "byteOffset": 3145536,
            "byteStride": 12,
            "componentType": 5126,
            "count": 65532,
            "max": [
                0.999995,
                0.999877,
                0.850989
            ],
            "min": [
                0.00825,
                -0.999877,
                -0.367714
            ],
            "type": "VEC3"
        },
        "accessor_44": {
            "bufferView": "bufferView_103",
            "byteOffset": 3931920,
            "byteStride": 12,
            "componentType": 5126,
            "count": 65532,
            "max": [
                0.999949,
                0.999723,
                0.847634
            ],
            "min": [
                0.0124941,
                -0.999723,
                -0.361691
            ],
            "type": "VEC3"
        },
        "accessor_48": {
            "bufferView": "bufferView_102",
            "byteOffset": 393192,
            "byteStride": 0,
            "componentType": 5123,
            "count": 65532,
            "type": "SCALAR"
        },
        "accessor_50": {
            "bufferView": "bufferView_103",
            "byteOffset": 4718304,
            "byteStride": 12,
            "componentType": 5126,
            "count": 65532,
            "max": [
                0.535823,
                0.999877,
                0.999992
            ],
            "min": [
                -0.745107,
                -0.999877,
                0.010608
            ],
            "type": "VEC3"
        },
        "accessor_52": {
            "bufferView": "bufferView_103",
            "byteOffset": 5504688,
            "byteStride": 12,
            "componentType": 5126,
            "count": 65532,
            "max": [
                0.530523,
                0.999723,
                0.999949
            ],
            "min": [
                -0.740587,
                -0.999723,
                0.0157996
            ],
            "type": "VEC3"
        },
        "accessor_56": {
            "bufferView": "bufferView_102",
            "byteOffset": 524256,
            "byteStride": 0,
            "componentType": 5123,
            "count": 65532,
            "type": "SCALAR"
        },
        "accessor_58": {
            "bufferView": "bufferView_103",
            "byteOffset": 6291072,
            "byteStride": 12,
            "componentType": 5126,
            "count": 65532,
            "max": [
                0.015709,
                1,
                0.675326
            ],
            "min": [
                -1,
                -1,
                -0.556875
            ],
            "type": "VEC3"
        },
        "accessor_60": {
            "bufferView": "bufferView_103",
            "byteOffset": 7077456,
            "byteStride": 12,
            "componentType": 5126,
            "count": 65532,
            "max": [
                0.00783217,
                0.999969,
                0.67066
            ],
            "min": [
                -0.99995,
                -0.999969,
                -0.551666
            ],
            "type": "VEC3"
        },
        "accessor_64": {
            "bufferView": "bufferView_102",
            "byteOffset": 655320,
            "byteStride": 0,
            "componentType": 5123,
            "count": 65532,
            "type": "SCALAR"
        },
        "accessor_66": {
            "bufferView": "bufferView_103",
            "byteOffset": 7863840,
            "byteStride": 12,
            "componentType": 5126,
            "count": 65532,
            "max": [
                0.391373,
                0.999877,
                -0.00858295
            ],
            "min": [
                -0.837424,
                -0.999877,
                -0.999997
            ],
            "type": "VEC3"
        },
        "accessor_68": {
            "bufferView": "bufferView_103",
            "byteOffset": 8650224,
            "byteStride": 12,
            "componentType": 5126,
            "count": 65532,
            "max": [
                0.385593,
                0.999723,
                -0.0129679
            ],
            "min": [
                -0.834028,
                -0.999723,
                -0.99995
            ],
            "type": "VEC3"
        },
        "accessor_72": {
            "bufferView": "bufferView_102",
            "byteOffset": 786384,
            "byteStride": 0,
            "componentType": 5123,
            "count": 65532,
            "type": "SCALAR"
        },
        "accessor_74": {
            "bufferView": "bufferView_103",
            "byteOffset": 9436608,
            "byteStride": 12,
            "componentType": 5126,
            "count": 65532,
            "max": [
                0.999995,
                0.999877,
                0.22427
            ],
            "min": [
                0.00614798,
                -0.999877,
                -0.923248
            ],
            "type": "VEC3"
        },
        "accessor_76": {
            "bufferView": "bufferView_103",
            "byteOffset": 10222992,
            "byteStride": 12,
            "componentType": 5126,
            "count": 65532,
            "max": [
                0.999949,
                0.999723,
                0.218144
            ],
            "min": [
                0.00907582,
                -0.999723,
                -0.921292
            ],
            "type": "VEC3"
        },
        "accessor_80": {
            "bufferView": "bufferView_102",
            "byteOffset": 917448,
            "byteStride": 0,
            "componentType": 5123,
            "count": 65532,
            "type": "SCALAR"
        },
        "accessor_82": {
            "bufferView": "bufferView_103",
            "byteOffset": 11009376,
            "byteStride": 12,
            "componentType": 5126,
            "count": 65532,
            "max": [
                0.977142,
                0.999877,
                0.999992
            ],
            "min": [
                -0.037671,
                -0.999877,
                0.00332999
            ],
            "type": "VEC3"
        },
        "accessor_84": {
            "bufferView": "bufferView_103",
            "byteOffset": 11795760,
            "byteStride": 12,
            "componentType": 5126,
            "count": 65532,
            "max": [
                0.975645,
                0.999723,
                0.999949
            ],
            "min": [
                -0.0313678,
                -0.999723,
                0.00512177
            ],
            "type": "VEC3"
        },
        "accessor_88": {
            "bufferView": "bufferView_102",
            "byteOffset": 1048512,
            "byteStride": 0,
            "componentType": 5123,
            "count": 65532,
            "type": "SCALAR"
        },
        "accessor_90": {
            "bufferView": "bufferView_103",
            "byteOffset": 12582144,
            "byteStride": 12,
            "componentType": 5126,
            "count": 65532,
            "max": [
                -0.000591,
                0.999877,
                0.999552
            ],
            "min": [
                -0.988642,
                -0.999877,
                0.00235999
            ],
            "type": "VEC3"
        },
        "accessor_92": {
            "bufferView": "bufferView_103",
            "byteOffset": 13368528,
            "byteStride": 12,
            "componentType": 5126,
            "count": 65532,
            "max": [
                -0.00101519,
                0.999723,
                0.999477
            ],
            "min": [
                -0.987652,
                -0.999723,
                0.00369799
            ],
            "type": "VEC3"
        },
        "accessor_96": {
            "bufferView": "bufferView_102",
            "byteOffset": 1179576,
            "byteStride": 0,
            "componentType": 5123,
            "count": 7212,
            "type": "SCALAR"
        },
        "accessor_98": {
            "bufferView": "bufferView_103",
            "byteOffset": 14154912,
            "byteStride": 12,
            "componentType": 5126,
            "count": 7212,
            "max": [
                -0.015529,
                0.999877,
                0.161913
            ],
            "min": [
                -1,
                -0.999877,
                0
            ],
            "type": "VEC3"
        }
    },
    "animations": {},
    "asset": {
        "generator": "collada2gltf@173625dc5ff1b7e8046666be1f3ca2835512ac08",
        "premultipliedAlpha": true,
        "profile": "WebGL 1.0.2",
        "version": 0.8
    },
    "bufferViews": {
        "bufferView_102": {
            "buffer": "sphere",
            "byteLength": 1194000,
            "byteOffset": 0,
            "target": 34963
        },
        "bufferView_103": {
            "buffer": "sphere",
            "byteLength": 14328000,
            "byteOffset": 1194000,
            "target": 34962
        }
    },
    "buffers": {
        "sphere": {
            "byteLength": 15522000,
            "type": "arraybuffer",
            "uri": "sphere.bin"
        }
    },
    "materials": {
        "None-effect": {
            "instanceTechnique": {
                "technique": "technique0",
                "values": {
                    "ambient": [
                        0,
                        0,
                        0,
                        1
                    ],
                    "diffuse": [
                        0.64,
                        0.64,
                        0.64,
                        1
                    ],
                    "emission": [
                        0,
                        0,
                        0,
                        1
                    ],
                    "shininess": 50,
                    "specular": [
                        0.5,
                        0.5,
                        0.5,
                        1
                    ]
                }
            },
            "name": "None"
        }
    },
    "meshes": {
        "Sphere-mesh": {
            "name": "Sphere",
            "primitives": [
                {
                    "attributes": {
                        "NORMAL": "accessor_28",
                        "POSITION": "accessor_26"
                    },
                    "indices": "accessor_24",
                    "material": "None-effect",
                    "primitive": 4
                }
            ]
        },
        "Sphere-meshsplit_0": {
            "name": "Sphere1",
            "primitives": [
                {
                    "attributes": {
                        "NORMAL": "accessor_36",
                        "POSITION": "accessor_34"
                    },
                    "indices": "accessor_32",
                    "material": "None-effect",
                    "primitive": 4
                }
            ]
        },
        "Sphere-meshsplit_1": {
            "name": "Sphere2",
            "primitives": [
                {
                    "attributes": {
                        "NORMAL": "accessor_44",
                        "POSITION": "accessor_42"
                    },
                    "indices": "accessor_40",
                    "material": "None-effect",
                    "primitive": 4
                }
            ]
        },
        "Sphere-meshsplit_2": {
            "name": "Sphere3",
            "primitives": [
                {
                    "attributes": {
                        "NORMAL": "accessor_52",
                        "POSITION": "accessor_50"
                    },
                    "indices": "accessor_48",
                    "material": "None-effect",
                    "primitive": 4
                }
            ]
        },
        "Sphere-meshsplit_3": {
            "name": "Sphere4",
            "primitives": [
                {
                    "attributes": {
                        "NORMAL": "accessor_60",
                        "POSITION": "accessor_58"
                    },
                    "indices": "accessor_56",
                    "material": "None-effect",
                    "primitive": 4
                }
            ]
        },
        "Sphere-meshsplit_4": {
            "name": "Sphere5",
            "primitives": [
                {
                    "attributes": {
                        "NORMAL": "accessor_68",
                        "POSITION": "accessor_66"
                    },
                    "indices": "accessor_64",
                    "material": "None-effect",
                    "primitive": 4
                }
            ]
        },
        "Sphere-meshsplit_5": {
            "name": "Sphere6",
            "primitives": [
                {
                    "attributes": {
                        "NORMAL": "accessor_76",
                        "POSITION": "accessor_74"
                    },
                    "indices": "accessor_72",
                    "material": "None-effect",
                    "primitive": 4
                }
            ]
        },
        "Sphere-meshsplit_6": {
            "name": "Sphere7",
            "primitives": [
                {
                    "attributes": {
                        "NORMAL": "accessor_84",
                        "POSITION": "accessor_82"
                    },
                    "indices": "accessor_80",
                    "material": "None-effect",
                    "primitive": 4
                }
            ]
        },
        "Sphere-meshsplit_7": {
            "name": "Sphere8",
            "primitives": [
                {
                    "attributes": {
                        "NORMAL": "accessor_92",
                        "POSITION": "accessor_90"
                    },
                    "indices": "accessor_88",
                    "material": "None-effect",
                    "primitive": 4
                }
            ]
        },
        "Sphere-meshsplit_8": {
            "name": "Sphere9",
            "primitives": [
                {
                    "attributes": {
                        "NORMAL": "accessor_100",
                        "POSITION": "accessor_98"
                    },
                    "indices": "accessor_96",
                    "material": "None-effect",
                    "primitive": 4
                }
            ]
        }
    },
    "nodes": {
        "Sphere": {
            "children": [],
            "matrix": [
                1,
                0,
                0,
                0,
                0,
                -4.37114e-08,
                1,
                0,
                0,
                -1,
                -4.37114e-08,
                0,
                0,
                0,
                0,
                1
            ],
            "meshes": [
                "Sphere-mesh",
                "Sphere-meshsplit_0",
                "Sphere-meshsplit_1",
                "Sphere-meshsplit_2",
                "Sphere-meshsplit_3",
                "Sphere-meshsplit_4",
                "Sphere-meshsplit_5",
                "Sphere-meshsplit_6",
                "Sphere-meshsplit_7",
                "Sphere-meshsplit_8"
            ],
            "name": "Sphere"
        },
        "node_1": {
            "children": [
                "Sphere"
            ],
            "matrix": [
                1,
                0,
                0,
                0,
                0,
                0,
                -1,
                0,
                0,
                1,
                0,
                0,
                0,
                0,
                0,
                1
            ],
            "name": "Y_UP_Transform"
        }
    },
    "programs": {
        "program_0": {
            "attributes": [
                "a_normal",
                "a_position"
            ],
            "fragmentShader": "sphere0FS",
            "vertexShader": "sphere0VS"
        }
    },
    "scene": "defaultScene",
    "scenes": {
        "defaultScene": {
            "nodes": [
                "node_1"
            ]
        }
    },
    "shaders": {
        "sphere0FS": {
            "type": 35632,
            "uri": "sphere0FS.glsl"
        },
        "sphere0VS": {
            "type": 35633,
            "uri": "sphere0VS.glsl"
        }
    },
    "skins": {},
    "techniques": {
        "technique0": {
            "parameters": {
                "ambient": {
                    "type": 35666
                },
                "diffuse": {
                    "type": 35666
                },
                "emission": {
                    "type": 35666
                },
                "modelViewMatrix": {
                    "semantic": "MODELVIEW",
                    "type": 35676
                },
                "normal": {
                    "semantic": "NORMAL",
                    "type": 35665
                },
                "normalMatrix": {
                    "semantic": "MODELVIEWINVERSETRANSPOSE",
                    "type": 35675
                },
                "position": {
                    "semantic": "POSITION",
                    "type": 35665
                },
                "projectionMatrix": {
                    "semantic": "PROJECTION",
                    "type": 35676
                },
                "shininess": {
                    "type": 5126
                },
                "specular": {
                    "type": 35666
                }
            },
            "pass": "defaultPass",
            "passes": {
                "defaultPass": {
                    "details": {
                        "commonProfile": {
                            "extras": {
                                "doubleSided": false
                            },
                            "lightingModel": "Phong",
                            "parameters": [
                                "ambient",
                                "diffuse",
                                "emission",
                                "modelViewMatrix",
                                "normalMatrix",
                                "projectionMatrix",
                                "shininess",
                                "specular"
                            ]
                        },
                        "type": "COLLADA-1.4.1/commonProfile"
                    },
                    "instanceProgram": {
                        "attributes": {
                            "a_normal": "normal",
                            "a_position": "position"
                        },
                        "program": "program_0",
                        "uniforms": {
                            "u_ambient": "ambient",
                            "u_diffuse": "diffuse",
                            "u_emission": "emission",
                            "u_modelViewMatrix": "modelViewMatrix",
                            "u_normalMatrix": "normalMatrix",
                            "u_projectionMatrix": "projectionMatrix",
                            "u_shininess": "shininess",
                            "u_specular": "specular"
                        }
                    },
                    "states": {
                        "enable": [
                            2884,
                            2929
                        ]
                    }
                }
            }
        }
    }
}
